<?xml version="1.0" encoding="UTF-8" standalone="no"?>
<svg
   viewBox="2200 2100 381.89994 404.40015"
   width="286.42496"
   height="303.30011"
   version="1.1"
   id="svg132"
   sodipodi:docname="artic-logo.svg"
   xmlns:inkscape="http://www.inkscape.org/namespaces/inkscape"
   xmlns:sodipodi="http://sodipodi.sourceforge.net/DTD/sodipodi-0.dtd"
   xmlns="http://www.w3.org/2000/svg"
   xmlns:svg="http://www.w3.org/2000/svg">
  <defs
     id="defs136" />
  <sodipodi:namedview
     id="namedview134"
     pagecolor="#ffffff"
     bordercolor="#000000"
     borderopacity="0.25"
     inkscape:showpageshadow="2"
     inkscape:pageopacity="0.0"
     inkscape:pagecheckerboard="0"
     inkscape:deskcolor="#d1d1d1"
     showgrid="false" />
  <style
     id="style2"><!--ARTIC blue: #005C68 -->
<!--ARTIC yellow: #F6EECA -->
<!--ARTIC red: #F1605D -->

        .logo-compass-line { fill: none; stroke: #F6EECA; stroke-width:0.5 }
        .logo-globe-line { fill: none; stroke: #F6EECA; stroke-width:0.5 }
        .logo-epi-line { fill: none; stroke: #F6EECA; stroke-width:5 }
        .logo-epi-circle { fill: #F1605D; stroke: #F6EECA; stroke-width:5 }
        .logo-central-circle { fill: #F1605D; stroke: #F6EECA; stroke-width:5 }
        .logo-virus { fill: #F6EECA; stroke: none }
    </style>
  <g
     id="g108"
     transform="translate(-101.5001,-195.99995)">
    <line
       class="logo-epi-line"
       x1="2350.5"
       y1="2424.1001"
       x2="2332.8999"
       y2="2432.7"
       id="line52" />
    <line
       class="logo-epi-line"
       x1="2368.3999"
       y1="2403"
       x2="2374.6001"
       y2="2378.2"
       id="line54" />
    <line
       class="logo-epi-line"
       x1="2514.3999"
       y1="2325.3"
       x2="2546.8999"
       y2="2313.5"
       id="line56" />
    <line
       class="logo-epi-line"
       x1="2457.3"
       y1="2313.8"
       x2="2485.8"
       y2="2324.8999"
       id="line58" />
    <line
       class="logo-epi-line"
       x1="2514.2"
       y1="2659.6001"
       x2="2560.6001"
       y2="2682"
       id="line60" />
    <line
       class="logo-epi-line"
       x1="2469.7"
       y1="2664.7"
       x2="2485.6001"
       y2="2658.5"
       id="line62" />
    <line
       class="logo-epi-line"
       x1="2500.1001"
       y1="2399.2"
       x2="2500.1001"
       y2="2346.3999"
       id="line64" />
    <line
       class="logo-epi-line"
       x1="2651.3999"
       y1="2408.8"
       x2="2586.6001"
       y2="2448.3999"
       id="line66" />
    <line
       class="logo-epi-line"
       x1="2619.8"
       y1="2571.7"
       x2="2586.3999"
       y2="2552"
       id="line68" />
    <line
       class="logo-epi-line"
       x1="2500.1001"
       y1="2637.8"
       x2="2500.1001"
       y2="2600.8"
       id="line70" />
    <line
       class="logo-epi-line"
       x1="2413.6001"
       y1="2551.8999"
       x2="2332.8999"
       y2="2599.1001"
       id="line72" />
    <line
       class="logo-epi-line"
       x1="2413.6001"
       y1="2448.1001"
       x2="2377.8999"
       y2="2426.1001"
       id="line74" />
    <line
       class="logo-epi-line"
       x1="2646.5"
       y1="2587.3"
       x2="2660.2"
       y2="2595.3999"
       id="line76" />
    <g
       id="g104">
      <circle
         class="logo-epi-circle"
         cx="2633.1001"
         cy="2579.5"
         r="16"
         id="circle78" />
      <circle
         class="logo-epi-circle"
         cx="2500.2"
         cy="2331"
         r="15.5"
         id="circle80" />
      <circle
         class="logo-epi-circle"
         cx="2364.8"
         cy="2418.1001"
         r="15.2"
         id="circle82" />
      <circle
         class="logo-epi-circle"
         cx="2664.6001"
         cy="2400.8"
         r="15.5"
         id="circle84" />
      <circle
         class="logo-epi-circle"
         cx="2319.6001"
         cy="2606.8999"
         r="15.6"
         id="circle86" />
      <circle
         class="logo-epi-circle"
         cx="2322.8999"
         cy="2437.5"
         r="11.1"
         id="circle88" />
      <circle
         class="logo-epi-circle"
         cx="2377.3"
         cy="2367.3999"
         r="11.1"
         id="circle90" />
      <circle
         class="logo-epi-circle"
         cx="2446.8999"
         cy="2309.7"
         r="11.2"
         id="circle92" />
      <circle
         class="logo-epi-circle"
         cx="2557.3999"
         cy="2309.7"
         r="11.2"
         id="circle94" />
      <circle
         class="logo-epi-circle"
         cx="2459.3"
         cy="2668.7"
         r="11.1"
         id="circle96" />
      <circle
         class="logo-epi-circle"
         cx="2669.8"
         cy="2601"
         r="11.1"
         id="circle98" />
      <circle
         class="logo-epi-circle"
         cx="2499.8999"
         cy="2653.2"
         r="15.5"
         id="circle100" />
      <circle
         class="logo-epi-circle"
         cx="2570.7"
         cy="2686.8"
         r="11.1"
         id="circle102" />
    </g>
    <circle
       class="logo-central-circle"
       cx="2500.2"
       cy="2500"
       r="100"
       id="circle106" />
  </g>
  <g
     id="g130"
     transform="translate(-101.5001,-195.99995)">
    <polygon
       class="logo-virus"
       points="2501.3,2588.9 2571.8,2549.8 2501.2,2564.6 "
       id="polygon110" />
    <polygon
       class="logo-virus"
       points="2499.3,2588.8 2499.2,2564.6 2428.7,2549.3 "
       id="polygon112" />
    <polygon
       class="logo-virus"
       points="2502.2,2562.4 2576.8,2546.7 2554.4,2470.9 "
       id="polygon114" />
    <polygon
       class="logo-virus"
       points="2498.2,2562.3 2445.4,2470.9 2423.6,2546.1 "
       id="polygon116" />
    <polygon
       class="logo-virus"
       points="2500.2,2561.8 2553,2469.3 2446.9,2469.3 "
       id="polygon118" />
    <polygon
       class="logo-virus"
       points="2577.1,2540.5 2577.1,2456.3 2555.9,2468.8 "
       id="polygon120" />
    <polygon
       class="logo-virus"
       points="2444,2468.8 2423.3,2456.6 2423.3,2539.9 "
       id="polygon122" />
    <polygon
       class="logo-virus"
       points="2552.4,2467.3 2500.3,2411.2 2447.4,2467.3 "
       id="polygon124" />
    <polygon
       class="logo-virus"
       points="2554.5,2466.6 2554.8,2467.3 2555.3,2466.8 2576.1,2454.5 2505.6,2413.9 "
       id="polygon126" />
    <polygon
       class="logo-virus"
       points="2494.9,2414 2424.3,2454.8 2444.5,2466.8 2445,2466.8 2445.3,2466.7 "
       id="polygon128" />
  </g>
</svg>
